<?xml version="1.0" standalone="no"?>
<!DOCTYPE svg PUBLIC "-//W3C//DTD SVG 20010904//EN"
 "http://www.w3.org/TR/2001/REC-SVG-20010904/DTD/svg10.dtd">
<svg version="1.0" xmlns="http://www.w3.org/2000/svg"
 width="1024.000000pt" height="1024.000000pt" viewBox="0 0 1024.000000 1024.000000"
 preserveAspectRatio="xMidYMid meet">

<g transform="translate(0.000000,1024.000000) scale(0.100000,-0.100000)"
fill="#000000" stroke="none">
<path d="M4680 9085 c-344 -38 -712 -136 -1017 -271 -405 -179 -773 -454
-1082 -809 -444 -509 -720 -1185 -766 -1879 l-7 -98 -32 7 c-17 3 -45 9 -61
12 -29 5 -410 -45 -516 -68 -58 -13 -109 -52 -133 -103 -14 -30 -16 -88 -16
-448 0 -270 4 -427 11 -453 6 -22 28 -56 48 -76 48 -49 101 -63 183 -49 35 5
78 10 96 10 l32 0 0 -227 c0 -254 6 -283 69 -336 58 -48 96 -52 281 -27 91 12
183 26 204 30 22 5 43 7 47 4 4 -2 -59 -116 -140 -252 -515 -860 -685 -1149
-699 -1183 -13 -35 -13 -41 2 -63 23 -37 65 -40 206 -17 69 12 262 41 430 66
441 64 570 84 709 106 102 16 127 17 141 7 10 -7 62 -51 117 -96 207 -176 420
-316 671 -441 647 -324 1393 -445 2112 -345 739 103 1380 408 1909 910 226
213 390 405 533 621 69 104 85 122 112 127 17 3 209 33 426 66 499 75 508 77
555 103 22 12 53 42 70 65 l30 44 0 288 c0 327 0 326 -83 365 l-42 19 0 283
c0 158 -4 293 -10 307 -8 23 -6 28 18 40 38 20 78 65 96 108 13 30 16 83 16
282 l0 244 34 12 c18 6 50 25 69 43 102 92 104 235 4 341 l-36 38 23 32 c60
80 86 165 86 286 0 247 -136 426 -352 462 -52 8 -97 5 -263 -16 -256 -33 -702
-95 -735 -101 -24 -5 -28 0 -70 107 -102 259 -275 561 -450 787 -476 612
-1313 1059 -2139 1141 -139 14 -549 11 -691 -5z m705 -240 c268 -31 482 -84
711 -175 650 -260 1164 -715 1468 -1300 60 -116 156 -336 156 -358 0 -9 -167
-38 -174 -31 -2 2 -20 42 -40 89 -133 306 -311 572 -536 804 -404 416 -941
689 -1535 781 -55 8 -179 18 -275 22 -672 23 -1352 -197 -1860 -603 -47 -38
-151 -134 -231 -214 -242 -241 -391 -444 -529 -725 -140 -284 -211 -517 -259
-849 -11 -76 -23 -141 -25 -143 -3 -4 -138 -30 -163 -33 -5 0 10 143 28 270
76 540 301 1035 662 1455 496 577 1161 924 1937 1010 165 18 508 18 665 0z
m-142 -409 c345 -104 563 -361 579 -687 l3 -56 100 -6 c113 -6 192 -28 282
-81 69 -41 157 -128 196 -193 62 -107 89 -267 68 -402 -12 -75 -66 -221 -82
-221 -4 0 2 21 16 48 67 134 79 311 31 457 -23 70 -66 156 -66 131 0 -5 -8 -2
-17 6 -18 15 -77 48 -87 48 -3 0 -1 -12 5 -27 6 -15 7 -24 3 -21 -3 4 -21 1
-39 -6 -23 -10 -36 -11 -43 -4 -13 13 -42 3 -41 -14 0 -10 2 -10 6 0 2 6 12
12 20 12 11 0 8 -5 -8 -19 -13 -10 -29 -16 -37 -14 -7 3 -12 2 -11 -3 4 -23
-3 -29 -33 -29 -18 0 -36 5 -40 10 -4 6 -8 2 -8 -7 0 -10 -5 -18 -11 -18 -8 0
-7 -6 2 -17 12 -15 11 -14 -13 1 -16 11 -32 14 -40 10 -7 -5 -16 -9 -19 -9 -3
0 -116 -113 -250 -250 -406 -416 -424 -435 -406 -435 9 0 125 16 258 35 133
20 250 34 258 33 9 -2 -105 -21 -254 -42 -148 -21 -281 -40 -295 -44 -18 -4
24 44 146 169 364 372 527 545 540 576 19 44 17 72 -6 111 -33 54 -66 62 -269
62 l-179 0 -1 225 c0 252 -6 278 -66 315 -31 19 -49 20 -445 20 -457 0 -460 0
-500 -65 -19 -30 -20 -49 -20 -263 l0 -231 -199 -3 -200 -3 -29 -28 c-17 -16
-33 -42 -36 -58 -12 -63 -21 -53 539 -644 270 -286 249 -260 222 -263 -57 -4
-1222 -182 -1329 -202 -169 -32 -287 20 -358 160 -35 69 -42 103 -42 193 1
173 116 364 266 443 l51 27 1 121 c1 98 5 133 23 186 69 199 253 374 447 425
73 19 201 19 279 0 82 -20 82 -20 89 23 11 56 89 210 136 267 88 104 197 182
326 231 121 45 177 53 344 50 133 -3 168 -7 243 -30z m798 -346 c370 -153 732
-468 968 -842 57 -90 151 -271 165 -314 6 -19 2 -22 -46 -28 -29 -4 -67 -9
-84 -12 -30 -5 -31 -4 -76 88 -192 398 -518 742 -858 905 l-78 38 -29 80 c-17
44 -33 88 -38 98 -9 22 -10 22 76 -13z m-681 -129 c6 -12 10 -121 10 -285 l0
-266 215 0 c167 0 215 -3 215 -13 0 -20 -799 -837 -819 -837 -18 0 -793 811
-799 836 -3 12 35 14 207 14 l211 0 0 269 c0 232 2 272 16 285 13 14 61 16
374 16 345 0 360 -1 370 -19z m-2240 -679 l0 -117 -56 -74 c-135 -181 -256
-512 -280 -770 -7 -69 -7 -71 -38 -76 -17 -3 -53 -9 -81 -14 -27 -5 -50 -9
-51 -8 0 1 5 44 13 95 39 265 149 566 293 802 49 80 190 280 197 280 2 0 3
-53 3 -118z m5924 -376 c70 -41 100 -93 104 -182 6 -106 -16 -164 -90 -237
-32 -32 -58 -60 -58 -62 0 -2 32 -51 71 -110 39 -59 69 -108 67 -109 -1 -2
-49 -9 -106 -16 -118 -14 -98 -26 -183 103 -53 79 -59 83 -118 71 l-31 -6 0
-108 0 -108 -87 -12 c-49 -6 -96 -14 -105 -16 -17 -5 -18 18 -18 375 0 210 -1
384 -2 388 -5 14 344 62 428 59 67 -2 89 -7 128 -30z m-674 -125 l0 -88 -37
-6 c-21 -3 -100 -14 -175 -24 l-138 -18 0 -66 0 -66 113 17 c61 10 133 20 160
23 l47 7 0 -84 0 -83 -37 -6 c-21 -3 -93 -13 -160 -23 l-123 -19 0 -57 c0 -42
4 -58 14 -58 7 0 80 9 161 20 81 11 154 20 161 20 11 0 14 -21 14 -90 0 -49
-2 -90 -5 -90 -3 0 -127 -18 -276 -40 -149 -22 -273 -40 -275 -40 -2 0 -4 176
-4 390 0 364 1 390 18 391 9 0 130 18 267 38 138 21 256 39 263 40 9 1 12 -23
12 -88z m-2070 -7 c-41 -7 -86 -12 -100 -12 -33 1 107 26 145 26 17 0 -4 -6
-45 -14z m-142 -21 c-10 -2 -26 -2 -35 0 -10 3 -2 5 17 5 19 0 27 -2 18 -5z
m-163 -23 c-60 -10 -121 -18 -135 -18 -36 1 168 35 210 36 19 0 -14 -8 -75
-18z m1541 -35 c107 -52 156 -139 162 -286 7 -154 -30 -251 -131 -347 -98 -92
-152 -109 -493 -157 -59 -8 -109 -15 -111 -15 -2 0 -3 176 -3 390 0 215 3 390
7 390 8 0 319 47 353 54 58 11 163 -3 216 -29z m-893 -177 c20 -51 81 -210
135 -353 55 -143 102 -267 106 -276 6 -12 -9 -17 -86 -28 -51 -7 -102 -15
-113 -17 -17 -4 -23 4 -40 53 -10 32 -19 59 -20 61 -1 1 -64 -7 -139 -18 -75
-11 -140 -20 -145 -20 -4 0 -15 -27 -25 -59 -20 -66 -12 -61 -136 -81 -121
-19 -119 -43 -18 238 49 136 112 312 140 392 28 80 55 150 60 155 5 6 59 17
121 26 62 9 115 17 118 18 4 0 23 -41 42 -91z m-763 -49 c76 -35 121 -77 155
-145 41 -80 48 -219 16 -321 -34 -116 -114 -209 -227 -266 -180 -91 -361 -72
-476 51 -69 74 -91 142 -86 272 3 93 7 113 35 173 56 119 156 204 292 249 83
27 217 21 291 -13z m-925 -689 c17 0 221 29 253 35 22 5 22 3 22 -83 l0 -88
-222 -33 c-123 -18 -233 -35 -245 -38 l-23 -5 0 386 c0 302 3 386 13 387 6 0
50 6 97 13 l85 11 3 -292 c2 -249 5 -293 17 -293z m-345 156 l0 -384 -84 -12
c-47 -7 -89 -9 -94 -6 -5 3 -69 85 -142 183 -73 98 -136 181 -139 185 -3 4 -6
-88 -6 -205 l0 -212 -65 -11 c-36 -7 -77 -12 -93 -13 l-27 -1 2 382 3 383 85
11 c65 8 87 8 95 -1 6 -7 69 -88 140 -180 l130 -169 3 202 c1 111 3 202 5 203
4 1 162 27 175 28 9 1 12 -82 12 -383z m-731 207 c-10 -38 -58 -212 -106 -388
-47 -176 -89 -323 -93 -328 -5 -6 -164 -36 -196 -37 -6 0 -32 84 -59 188 -45
176 -65 233 -65 187 0 -11 -24 -110 -53 -220 l-54 -200 -92 -14 c-73 -10 -95
-11 -101 -1 -10 17 -213 720 -209 725 9 7 195 32 200 26 3 -3 20 -62 38 -131
58 -233 79 -305 85 -290 3 8 30 113 60 234 30 120 57 220 59 222 6 6 159 26
163 21 2 -2 30 -99 61 -215 52 -191 72 -240 73 -179 1 12 25 116 53 232 l53
210 74 11 c41 6 87 12 102 13 l27 1 -20 -67z m-1216 -161 c77 -38 119 -84 147
-161 63 -166 19 -352 -112 -478 -72 -69 -140 -107 -230 -128 -86 -20 -144 -19
-223 6 -89 27 -162 97 -195 184 -62 169 2 395 144 507 102 81 189 109 317 105
74 -3 96 -8 152 -35z m6327 -265 l0 -233 -337 -47 c-186 -26 -362 -51 -390
-54 l-53 -6 0 -134 c0 -133 0 -133 23 -128 36 8 628 95 648 95 18 0 19 -12 19
-220 l0 -219 -32 -6 c-35 -6 -648 -95 -654 -95 -2 0 -4 -58 -4 -130 0 -71 2
-130 4 -130 3 0 175 25 383 55 208 30 386 55 396 55 16 0 17 -15 15 -222 l-3
-223 -150 -22 c-82 -12 -368 -54 -635 -93 -267 -38 -500 -72 -517 -75 l-33 -6
0 940 0 939 38 6 c217 32 387 57 792 116 261 38 478 69 483 69 4 1 7 -104 7
-232z m-7205 101 c59 -31 95 -67 127 -128 20 -40 23 -59 23 -160 0 -104 -3
-121 -27 -172 -30 -64 -95 -139 -151 -175 -67 -43 -131 -61 -303 -87 -93 -15
-181 -29 -196 -32 l-28 -6 0 371 0 370 48 7 c26 4 94 15 152 25 66 11 142 17
205 16 85 -3 107 -7 150 -29z m5655 -1033 c0 -893 -1 -945 -17 -945 -10 0
-127 -16 -259 -36 -133 -20 -248 -34 -256 -31 -8 3 -185 209 -394 458 l-379
453 -3 -514 -2 -515 -258 -38 c-141 -21 -260 -38 -264 -37 -5 0 -8 424 -8 943
l0 942 266 39 266 39 23 -24 c23 -25 640 -795 708 -883 l37 -49 0 530 0 530
113 17 c182 27 422 63 425 65 1 0 2 -424 2 -944z m-2678 541 c191 -37 364
-139 474 -279 306 -391 238 -979 -155 -1350 -307 -289 -753 -418 -1116 -320
-76 20 -209 81 -272 124 -389 267 -464 838 -167 1289 58 89 204 243 293 310
134 100 326 184 506 220 113 23 333 26 437 6z m-1394 -198 c-9 -13 -92 -149
-185 -303 -144 -237 -386 -633 -683 -1120 -37 -60 -67 -111 -66 -111 0 -1 53
6 116 16 146 23 579 87 645 96 l50 6 -3 -221 c-3 -219 -3 -221 -25 -226 -12
-2 -393 -61 -847 -130 -454 -70 -836 -129 -850 -132 l-24 -6 19 29 c10 16 69
112 130 214 62 102 197 325 300 495 103 171 229 378 278 460 50 83 121 199
158 260 37 60 67 111 66 111 -1 1 -184 -25 -407 -57 -223 -32 -406 -59 -407
-59 -2 0 -3 101 -3 224 l0 225 43 6 c605 90 1659 243 1681 244 27 1 28 0 14
-21z m4395 -1430 c-5 -7 -38 -51 -73 -98 -404 -541 -993 -967 -1615 -1170
-956 -310 -2000 -164 -2834 397 -68 46 -154 107 -190 136 l-65 52 116 19 116
18 93 -64 c622 -431 1402 -626 2129 -533 581 75 1140 326 1612 724 110 93 342
329 416 422 l52 66 97 13 c54 7 109 17 123 21 14 4 27 8 29 8 2 1 -1 -5 -6
-11z m-651 -153 c-188 -212 -578 -477 -932 -635 -182 -82 -557 -200 -593 -187
-7 2 8 7 33 12 78 13 341 95 453 141 292 119 560 276 797 465 115 91 258 224
250 233 -3 2 -53 -3 -111 -12 l-106 -17 -74 -61 c-199 -164 -412 -302 -624
-404 -126 -60 -284 -124 -291 -117 -3 2 35 19 83 37 268 100 588 291 829 496
l68 58 126 22 c69 12 129 22 133 23 5 1 -14 -24 -41 -54z m-3285 -443 c276
-139 563 -224 889 -266 60 -7 94 -14 75 -15 -48 -1 -228 26 -359 55 -296 66
-611 197 -868 360 l-52 33 -21 -55 c-11 -31 -21 -62 -21 -69 0 -17 107 -80
297 -173 288 -141 603 -236 928 -278 178 -24 517 -24 680 -1 66 9 138 19 160
22 l40 5 -35 -10 c-170 -46 -611 -60 -849 -27 -410 57 -795 188 -1133 385
l-106 63 26 78 25 78 103 -63 c57 -35 156 -90 221 -122z m2063 -151 c-42 -24
-391 -111 -440 -110 -14 0 27 11 90 24 63 13 167 40 230 59 120 35 145 41 120
27z m-482 -118 c-10 -2 -26 -2 -35 0 -10 3 -2 5 17 5 19 0 27 -2 18 -5z m-75
-10 c-13 -2 -33 -2 -45 0 -13 2 -3 4 22 4 25 0 35 -2 23 -4z m-340 -10 c-29
-2 -77 -2 -105 0 -29 2 -6 3 52 3 58 0 81 -1 53 -3z m230 0 c-23 -2 -64 -2
-90 0 -26 2 -7 3 42 3 50 0 71 -1 48 -3z"/>
<path d="M7643 7150 c3 -8 14 -38 25 -66 12 -29 18 -55 15 -58 -12 -12 -55 -6
-70 9 -8 9 -18 13 -21 10 -4 -3 0 -10 8 -15 10 -6 5 -11 -21 -19 -28 -9 -21
-10 41 -5 41 3 77 7 79 9 5 6 -28 97 -45 125 -8 14 -13 18 -11 10z"/>
<path d="M7506 7107 c3 -10 9 -15 12 -12 3 3 0 11 -7 18 -10 9 -11 8 -5 -6z"/>
<path d="M7520 7071 c0 -6 4 -13 10 -16 6 -3 7 1 4 9 -7 18 -14 21 -14 7z"/>
<path d="M6305 7500 c32 -36 61 -67 63 -70 3 -3 0 4 -6 15 -6 11 -34 43 -63
70 l-53 50 59 -65z"/>
<path d="M5981 7384 c0 -11 3 -14 6 -6 3 7 2 16 -1 19 -3 4 -6 -2 -5 -13z"/>
<path d="M5967 7353 c-4 -3 -7 -11 -7 -17 0 -6 5 -5 12 2 6 6 9 14 7 17 -3 3
-9 2 -12 -2z"/>
<path d="M4423 6905 c24 -31 25 -49 2 -50 -13 0 -19 -6 -19 -17 1 -10 -2 -18
-8 -18 -5 0 -7 -4 -3 -9 3 -5 0 -13 -6 -17 -7 -4 -9 -3 -6 3 14 23 -23 21 -47
-2 -14 -13 -26 -19 -27 -12 0 7 -7 -4 -14 -23 -7 -19 -14 -27 -14 -17 -1 9 -5
17 -11 17 -5 0 -7 -7 -3 -17 5 -13 2 -15 -15 -11 -12 3 -20 3 -19 -1 3 -9 -40
-50 -47 -43 -3 3 -6 1 -6 -5 0 -11 -57 -37 -73 -34 -4 1 -16 -3 -27 -9 -12 -7
-21 -7 -25 0 -12 19 -25 10 -19 -14 8 -33 -10 -40 -43 -19 -15 10 -24 13 -20
6 4 -7 -1 -18 -13 -26 -11 -7 -17 -18 -12 -23 4 -4 -2 -2 -12 6 -18 14 -19 13
-14 -16 3 -24 1 -31 -9 -27 -7 3 -13 9 -13 14 0 5 -4 9 -10 9 -5 0 -10 -7 -10
-16 0 -8 -4 -13 -9 -9 -5 3 -13 0 -17 -6 -4 -7 -3 -9 4 -5 6 3 13 2 16 -3 8
-12 -20 -22 -41 -14 -12 5 -15 2 -10 -10 8 -20 3 -21 -26 -5 -20 10 -21 10 -7
-6 13 -16 12 -20 -3 -31 -11 -8 -14 -15 -7 -18 6 -3 5 -4 -2 -3 -7 2 -20 -1
-30 -5 -9 -5 -37 -10 -63 -11 -25 0 -49 -6 -52 -11 -7 -11 2 -10 217 23 177
27 543 82 748 111 89 13 162 26 162 29 -1 3 -80 86 -177 185 -97 99 -169 171
-160 160z m-423 -313 c0 -13 -12 -22 -22 -16 -10 6 -1 24 13 24 5 0 9 -4 9 -8z"/>
<path d="M4175 6719 c-4 -6 -5 -12 -2 -15 2 -3 7 2 10 11 7 17 1 20 -8 4z"/>
<path d="M3736 6468 c3 -4 11 -5 19 -1 8 3 15 0 15 -6 0 -6 5 -11 11 -11 8 0
8 4 0 14 -12 15 -54 18 -45 4z"/>
<path d="M3719 6457 c0 -1 -2 -10 -4 -19 -2 -13 1 -15 18 -9 28 11 32 26 7 28
-11 1 -20 1 -21 0z"/>
<path d="M3568 6388 c6 -6 18 -8 28 -6 14 3 12 5 -9 10 -19 3 -25 2 -19 -4z"/>
<path d="M3225 6370 c13 -22 104 -31 184 -20 44 7 81 14 81 17 0 3 -21 2 -47
-2 -100 -13 -135 -13 -178 0 -25 7 -43 9 -40 5z"/>
<path d="M3518 6373 c6 -2 18 -2 25 0 6 3 1 5 -13 5 -14 0 -19 -2 -12 -5z"/>
<path d="M6260 7956 c0 -2 7 -7 16 -10 8 -3 12 -2 9 4 -6 10 -25 14 -25 6z"/>
<path d="M6300 7936 c0 -2 25 -22 55 -43 30 -22 52 -43 48 -48 -5 -4 -3 -5 4
-2 6 4 35 -12 65 -35 70 -56 80 -66 69 -72 -14 -9 -42 5 -35 16 4 6 1 8 -7 6
-8 -3 -13 -12 -13 -21 1 -8 -9 -20 -21 -25 -19 -9 -28 -7 -45 8 -15 13 -17 20
-8 23 7 3 2 5 -11 4 -13 -1 -26 3 -28 9 -2 7 16 10 53 9 30 -1 50 1 43 5 -6 4
-9 12 -5 18 3 5 -2 13 -12 17 -30 13 -39 13 -39 -1 0 -7 3 -13 6 -12 19 2 33
-3 27 -9 -4 -4 -27 -8 -51 -9 -42 -1 -44 0 -34 20 10 20 9 20 -5 3 -14 -18
-16 -18 -60 12 -24 17 -48 31 -51 31 -4 0 28 -25 71 -56 44 -31 89 -65 101
-76 12 -12 27 -17 34 -13 7 5 10 4 6 -1 -3 -5 44 -59 105 -119 168 -167 288
-335 402 -564 45 -88 60 -111 74 -107 9 3 42 8 73 11 l57 7 -38 82 c-66 142
-176 318 -283 451 -67 82 -170 184 -180 178 -6 -3 -7 -2 -4 4 8 13 -37 56 -47
46 -4 -5 -6 -1 -4 7 2 8 -3 14 -9 13 -7 -2 -12 1 -10 6 3 10 -60 64 -178 151
-98 72 -115 84 -115 76z m279 -230 c0 -7 -2 -7 -5 1 -3 7 -12 9 -20 6 -10 -4
-12 0 -8 11 5 13 9 14 20 5 8 -6 14 -17 13 -23z m-54 6 c-3 -3 -11 0 -18 7 -9
10 -8 11 6 5 10 -3 15 -9 12 -12z m-41 -18 c3 -8 2 -12 -4 -9 -6 3 -10 10 -10
16 0 14 7 11 14 -7z"/>
<path d="M6190 7866 c0 -3 9 -10 20 -16 11 -6 20 -8 20 -6 0 3 -9 10 -20 16
-11 6 -20 8 -20 6z"/>
<path d="M2731 6679 c-7 -22 -11 -43 -8 -45 2 -2 9 14 16 37 7 22 11 43 8 45
-2 2 -9 -14 -16 -37z"/>
<path d="M2836 6684 c-4 -14 -5 -28 -3 -31 3 -2 8 8 11 23 4 14 5 28 3 31 -3
2 -8 -8 -11 -23z"/>
<path d="M2801 6554 c0 -11 3 -14 6 -6 3 7 2 16 -1 19 -3 4 -6 -2 -5 -13z"/>
<path d="M2691 6544 c0 -11 3 -14 6 -6 3 7 2 16 -1 19 -3 4 -6 -2 -5 -13z"/>
<path d="M2780 6465 c-7 -36 -10 -68 -8 -70 3 -3 10 25 17 61 6 37 10 68 8 71
-3 2 -10 -26 -17 -62z"/>
<path d="M2681 6504 c0 -11 3 -14 6 -6 3 7 2 16 -1 19 -3 4 -6 -2 -5 -13z"/>
<path d="M2672 6460 c0 -14 2 -19 5 -12 2 6 2 18 0 25 -3 6 -5 1 -5 -13z"/>
<path d="M2650 6358 c-6 -40 -13 -83 -16 -95 -2 -13 -1 -23 4 -23 4 0 9 17 10
37 2 21 8 42 13 48 7 7 9 5 6 -5 -2 -8 -2 -12 0 -8 2 4 12 4 21 1 10 -3 8 2
-6 12 -20 15 -22 22 -16 61 3 24 4 44 1 44 -3 0 -10 -33 -17 -72z"/>
<path d="M2763 6345 c0 -22 2 -30 4 -17 2 12 2 30 0 40 -3 9 -5 -1 -4 -23z"/>
<path d="M2750 6286 c0 -8 -8 -17 -17 -19 -14 -4 -12 -5 5 -6 16 -1 22 5 22
19 0 11 -2 20 -5 20 -3 0 -5 -6 -5 -14z"/>
<path d="M2680 6260 l-25 -8 28 -1 c15 -1 27 4 27 9 0 6 -1 10 -2 9 -2 -1 -14
-5 -28 -9z"/>
<path d="M8763 6748 l-63 -10 0 -110 0 -110 43 7 c144 22 192 56 192 136 0 83
-47 107 -172 87z"/>
<path d="M7223 6518 l-43 -9 0 -196 0 -195 58 6 c90 11 151 35 192 76 84 84
77 255 -12 310 -36 22 -119 26 -195 8z"/>
<path d="M6471 6344 c-6 -22 -26 -87 -45 -146 -27 -86 -31 -108 -20 -108 19 0
158 21 162 25 3 3 -77 257 -83 263 -2 2 -8 -13 -14 -34z"/>
<path d="M5604 6281 c-148 -67 -180 -303 -52 -381 42 -25 119 -26 174 -1 117
53 171 228 104 336 -39 63 -142 84 -226 46z"/>
<path d="M2375 5801 c-53 -24 -111 -90 -126 -143 -15 -57 -6 -154 18 -186 70
-94 191 -95 282 -4 74 74 94 186 48 272 -40 76 -133 102 -222 61z"/>
<path d="M1475 5651 l-30 -6 -3 -179 -2 -179 62 7 c136 14 215 82 225 193 11
117 -41 174 -157 172 -36 -1 -78 -4 -95 -8z"/>
<path d="M4310 4866 c-107 -31 -215 -105 -285 -195 -237 -308 -171 -731 130
-831 225 -75 487 19 628 226 155 228 132 537 -54 709 -79 72 -144 97 -274 101
-63 2 -117 -1 -145 -10z"/>
<path d="M7640 3669 c-30 -5 -69 -11 -86 -14 -23 -4 -44 -22 -83 -70 -157
-197 -452 -466 -671 -614 -442 -299 -848 -456 -1360 -527 -156 -22 -567 -25
-710 -6 -543 74 -988 242 -1418 534 l-102 70 -96 -17 c-73 -13 -92 -20 -84
-29 20 -25 237 -176 353 -245 413 -249 853 -396 1352 -453 138 -16 525 -15
670 1 586 64 1117 275 1595 632 198 149 467 399 454 421 -4 6 -2 8 4 4 6 -3
43 32 84 81 105 125 119 144 111 156 -3 5 -1 7 5 3 14 -8 55 50 46 65 -4 7 -3
9 4 5 6 -3 13 -2 17 4 7 11 -7 11 -85 -1z"/>
</g>
</svg>
