<?xml version="1.0" standalone="no"?>
<!DOCTYPE svg PUBLIC "-//W3C//DTD SVG 20010904//EN"
 "http://www.w3.org/TR/2001/REC-SVG-20010904/DTD/svg10.dtd">
<svg version="1.0" xmlns="http://www.w3.org/2000/svg"
 width="300.000000pt" height="300.000000pt" viewBox="0 0 300.000000 300.000000"
 preserveAspectRatio="xMidYMid meet">
<metadata>
Created by potrace 1.10, written by Peter Selinger 2001-2011
</metadata>
<g transform="translate(0.000000,300.000000) scale(0.100000,-0.100000)"
fill="#1da3dd" stroke="none">
<path d="M1379 2565 c-2 -2 -27 -6 -54 -8 -28 -3 -57 -7 -65 -11 -8 -3 -28 -8
-45 -10 -27 -4 -54 -13 -140 -46 -16 -6 -32 -12 -35 -12 -3 0 -17 -8 -31 -18
-14 -11 -31 -20 -38 -22 -14 -3 -32 -18 -118 -97 -29 -27 -54 -46 -56 -44 -2
1 -12 -13 -23 -32 -10 -19 -21 -35 -25 -35 -3 0 -19 -19 -35 -42 -16 -24 -31
-45 -34 -48 -3 -3 -11 -18 -19 -35 -7 -16 -21 -46 -31 -65 -15 -30 -40 -97
-46 -122 -1 -5 -2 -9 -3 -10 -1 -2 -4 -21 -5 -43 -2 -21 -7 -40 -12 -42 -5 -2
-9 -71 -9 -154 0 -83 -4 -153 -9 -156 -5 -3 -23 -7 -40 -9 -17 -2 -42 -9 -56
-15 -74 -33 -75 -33 -82 -82 -3 -27 -12 -55 -19 -63 -10 -12 -10 -15 2 -12 9
2 14 -6 15 -22 11 -225 14 -255 31 -268 10 -7 17 -18 15 -23 -1 -6 3 -7 10 -3
7 5 28 7 46 5 18 -1 39 2 47 9 17 14 29 -3 32 -48 2 -40 14 -56 54 -72 24 -10
28 -17 23 -34 -4 -11 -9 -23 -13 -26 -3 -3 -7 -11 -9 -18 -1 -7 -20 -42 -42
-78 -22 -37 -40 -70 -40 -75 0 -5 -7 -12 -15 -15 -8 -4 -12 -10 -9 -15 3 -5
-6 -24 -19 -41 -14 -18 -36 -55 -50 -82 -24 -46 -25 -50 -9 -62 23 -18 48 -17
123 5 59 17 137 38 234 63 22 5 49 14 60 19 11 5 37 11 57 13 20 3 45 9 55 14
20 11 103 37 118 37 6 0 39 -14 75 -31 101 -50 164 -77 180 -80 8 -1 38 -7 65
-13 28 -7 84 -14 125 -17 41 -2 96 -6 122 -8 26 -1 45 1 42 6 -3 4 7 7 23 6
15 -1 44 1 63 5 54 12 202 69 232 89 14 10 30 18 35 18 4 0 30 17 56 37 25 21
64 51 84 68 21 16 63 58 93 93 30 35 63 71 73 80 9 9 17 20 17 25 0 24 67 83
113 99 27 10 61 25 76 35 25 17 46 23 83 24 28 1 48 58 43 130 -2 35 -4 64 -5
64 -1 0 -3 20 -5 45 -3 32 -11 50 -27 63 -28 24 -29 65 -1 95 19 21 23 58 8
82 -2 3 0 12 5 20 5 9 5 19 -2 27 -8 10 -6 19 7 33 10 11 24 20 30 20 7 0 24
9 39 21 31 25 34 60 7 109 -14 27 -16 42 -9 67 12 43 -5 102 -39 145 -15 18
-29 35 -31 38 -5 7 -122 6 -122 0 0 -3 -20 -10 -44 -16 -51 -12 -61 -7 -99 49
-32 47 -85 110 -159 191 -32 35 -55 66 -50 71 4 4 1 5 -6 1 -11 -7 -85 45
-159 112 -12 11 -24 18 -27 15 -3 -3 -19 5 -35 16 -17 12 -39 24 -48 26 -27 5
-106 37 -121 48 -7 5 -15 7 -18 4 -3 -3 -18 -1 -33 5 -28 10 -51 16 -91 23
-37 7 -247 15 -251 10z m314 -50 c266 -68 499 -235 657 -472 28 -43 53 -79 54
-80 2 -2 45 6 97 18 85 18 97 19 125 5 55 -25 91 -129 62 -175 -9 -15 -7 -24
10 -46 44 -56 25 -102 -53 -131 l-30 -11 4 -81 c3 -73 1 -81 -18 -91 -17 -10
-21 -21 -21 -63 0 -48 1 -50 24 -46 24 5 25 2 30 -59 3 -34 9 -92 12 -127 7
-77 14 -70 -142 -116 l-111 -32 -53 -82 c-72 -109 -215 -249 -315 -308 -98
-58 -231 -103 -349 -119 -168 -22 -324 8 -500 95 l-104 51 -109 -33 c-157 -48
-515 -143 -524 -140 -5 2 -3 14 5 28 44 81 189 334 228 397 l20 33 -30 -6
c-18 -4 -41 0 -61 10 -30 16 -31 19 -31 77 0 54 -2 60 -18 54 -9 -4 -46 -9
-82 -12 l-65 -5 -3 108 c-1 60 -5 150 -8 200 l-6 91 98 24 99 24 0 155 c0 138
3 166 28 253 98 355 363 585 730 637 92 13 246 2 350 -25z"/>
<path d="M1350 2504 c-210 -39 -342 -100 -467 -218 -116 -108 -198 -253 -239
-424 -24 -97 -26 -121 -22 -253 l5 -145 -61 -12 c-34 -6 -79 -17 -100 -23
l-39 -11 7 -161 c4 -89 10 -165 15 -169 4 -4 38 1 76 12 39 11 71 20 72 20 2
0 3 -30 3 -67 0 -90 6 -97 66 -90 27 3 60 9 72 13 l24 7 -27 -53 c-15 -29 -74
-132 -132 -229 -58 -97 -107 -179 -109 -182 -2 -4 15 0 38 8 64 22 488 141
530 148 29 5 43 2 65 -13 80 -57 260 -115 393 -128 72 -6 236 15 315 41 144
48 285 144 386 262 62 73 122 154 117 159 -2 1 -16 0 -31 -3 -19 -4 -45 -26
-81 -72 -134 -167 -287 -265 -490 -311 -173 -40 -370 -15 -533 69 -36 18 -43
26 -43 51 0 17 -4 30 -9 30 -17 0 -8 -45 16 -77 l24 -33 -36 21 c-43 26 -50
36 -35 54 7 9 10 37 8 69 l-3 55 25 -16 c14 -9 30 -24 37 -32 7 -9 13 -13 13
-8 0 4 14 0 32 -9 18 -9 55 -18 82 -20 64 -3 67 -4 36 -13 -18 -5 -21 -8 -10
-12 8 -4 44 3 80 14 54 17 76 32 128 84 35 35 66 63 68 63 2 0 4 -16 4 -36 0
-36 0 -36 35 -30 19 4 70 17 112 29 l78 22 0 88 c0 48 2 87 3 87 2 0 32 -24
65 -54 92 -79 88 -78 197 -44 52 16 127 38 165 48 39 10 129 36 200 57 l130
39 3 64 c2 36 0 84 -3 107 -5 36 -9 42 -28 40 -21 -2 -22 3 -25 72 -2 60 0 75
14 86 14 10 18 29 18 95 l1 83 46 13 c26 8 50 21 53 30 7 17 -18 70 -35 76 -9
3 -7 12 6 31 25 38 15 104 -20 134 -32 28 -64 29 -167 2 -44 -11 -81 -19 -82
-17 -1 2 -23 37 -48 78 -148 241 -374 410 -639 481 -72 19 -292 34 -349 23z
m360 -74 c94 -27 226 -88 293 -136 69 -49 169 -146 221 -214 45 -58 109 -160
104 -165 -2 -1 -13 -7 -25 -14 -20 -10 -25 -6 -59 51 -141 242 -367 403 -634
453 -29 5 -22 0 35 -31 39 -21 104 -54 145 -75 41 -20 84 -45 95 -54 20 -16
19 -16 -5 -9 -14 3 -37 13 -52 20 -38 20 -42 18 -21 -11 15 -20 27 -24 67 -25
133 -1 267 -135 270 -271 0 -32 3 -59 6 -59 3 0 15 3 27 6 22 6 22 7 5 33 -11
14 -22 35 -26 46 -8 25 37 -27 59 -67 23 -42 12 -53 -54 -53 l-58 -1 9 34 c13
47 -7 132 -45 189 -47 70 -113 107 -198 111 -45 3 -69 8 -69 16 0 21 -68 92
-117 124 -74 46 -145 65 -222 60 -116 -9 -216 -71 -263 -166 -21 -40 -29 -47
-58 -50 -55 -6 -109 -47 -136 -105 -13 -29 -24 -64 -24 -79 0 -17 -5 -28 -14
-28 -8 0 -33 -21 -55 -46 -41 -47 -71 -121 -71 -174 0 -43 26 -118 54 -155
l26 -33 -43 -16 c-23 -8 -54 -17 -69 -20 -27 -6 -28 -5 -28 36 0 32 -3 39 -10
28 -8 -12 -10 -11 -10 7 0 12 -3 29 -7 39 -3 10 -2 15 3 12 5 -4 8 17 6 48 -2
30 -1 62 3 72 12 29 25 -20 32 -119 6 -91 8 -94 49 -83 l22 6 -26 45 c-30 55
-41 160 -22 219 18 54 67 123 101 143 16 9 29 23 29 32 0 78 86 183 159 195
34 5 44 13 60 44 l20 38 -90 -60 c-97 -66 -134 -102 -175 -175 -75 -133 -116
-203 -119 -203 -2 0 1 17 7 38 25 92 126 251 193 307 56 45 154 105 173 105 7
0 33 16 58 36 24 20 70 47 101 60 46 20 51 24 23 19 -138 -25 -257 -77 -362
-160 -107 -84 -193 -219 -239 -375 -18 -61 -23 -103 -24 -223 -2 -136 -3 -149
-23 -167 -14 -13 -23 -16 -28 -9 -3 6 -9 68 -11 137 -7 167 16 275 87 419 84
169 187 275 345 354 134 66 205 80 380 75 114 -3 168 -9 225 -26z m-113 -112
c70 -26 157 -107 168 -157 6 -28 10 -32 28 -27 81 23 131 14 191 -36 47 -39
75 -98 76 -159 0 -65 -16 -105 -48 -117 -28 -10 -161 -43 -272 -68 -36 -7 -76
-18 -90 -23 -58 -21 -599 -152 -625 -151 -11 0 -27 12 -36 29 l-16 28 61 12
c33 7 70 13 81 15 11 2 38 8 60 14 22 6 51 13 65 16 55 10 181 46 200 56 29
15 25 21 -7 9 -14 -5 -101 -28 -192 -49 -91 -22 -182 -45 -202 -50 -20 -6 -48
-10 -62 -10 -23 0 -27 5 -32 43 -4 24 -2 63 5 88 13 47 64 109 90 109 9 0 25
7 36 16 18 15 17 15 -16 10 -69 -12 -123 -78 -135 -167 -8 -56 12 -109 57
-156 24 -25 28 -33 15 -33 -29 0 -90 96 -102 162 -10 55 18 129 66 172 21 20
48 36 59 36 17 0 20 7 20 53 0 93 61 153 148 145 35 -3 36 -2 44 38 11 55 69
121 132 150 67 31 154 32 233 2z m583 -309 c0 -6 -4 -7 -10 -4 -5 3 -10 11
-10 16 0 6 5 7 10 4 6 -3 10 -11 10 -16z m438 -116 c17 -23 15 -60 -5 -94 -16
-28 -16 -29 7 -54 26 -28 26 -30 -12 -39 -22 -5 -31 -1 -44 19 -24 36 -44 32
-44 -9 0 -31 -13 -46 -40 -46 -11 0 -17 38 -25 146 l-5 81 52 10 c63 13 98 8
116 -14z m-348 -12 c0 -5 -6 -21 -14 -36 -17 -32 -27 -12 -12 22 11 23 26 31
26 14z m160 -19 c0 -25 -6 -30 -47 -43 -71 -22 -54 -44 20 -26 25 7 27 5 27
-22 0 -28 -3 -30 -45 -37 -30 -4 -45 -11 -45 -21 0 -11 7 -13 26 -9 82 21 84
21 84 -12 0 -29 -3 -30 -77 -51 -42 -11 -78 -20 -79 -18 -1 1 -5 52 -9 114
l-7 112 44 11 c24 6 54 15 68 20 38 13 40 12 40 -18z m-361 -44 c-30 -18 -31
-22 -27 -68 3 -27 3 -52 0 -55 -9 -8 -60 79 -55 93 3 6 14 12 24 12 10 0 28
13 40 30 18 23 25 27 36 18 11 -9 7 -15 -18 -30z m-1276 -9 c-3 -11 -9 -22
-14 -25 -10 -6 -12 27 -3 51 9 23 23 0 17 -26z m1426 -4 c58 -29 64 -118 12
-174 -26 -28 -134 -71 -147 -59 -3 3 -8 55 -11 116 l-6 109 39 11 c56 14 81
14 113 -3z m-329 -42 c0 -6 -22 -74 -26 -81 -4 -7 -74 44 -74 53 0 6 12 12 26
13 14 1 33 6 42 12 20 11 32 13 32 3z m124 -88 c31 -52 56 -99 56 -104 0 -18
-52 -23 -64 -6 -10 14 -18 15 -54 6 -30 -8 -42 -17 -42 -30 0 -11 -12 -21 -35
-28 -19 -6 -35 -8 -35 -4 0 4 16 59 36 122 31 101 52 139 75 139 3 0 32 -43
63 -95z m-395 -7 c-26 -36 -30 -50 -28 -93 3 -44 1 -50 -16 -50 -17 0 -21 9
-26 62 -3 34 -12 69 -19 77 -10 13 -9 17 4 22 9 3 25 4 36 1 13 -3 18 -1 13 6
-4 6 0 8 9 5 8 -4 21 -2 29 3 29 18 28 8 -2 -33z m198 7 c61 -71 -4 -201 -99
-199 -52 2 -85 26 -99 75 -12 37 -11 45 10 84 13 25 37 50 54 60 45 22 106 13
134 -20z m750 -15 c-8 -14 -15 -16 -24 -9 -9 8 -9 15 0 29 8 14 15 16 24 9 9
-8 9 -15 0 -29z m-1042 -86 c8 -95 -1 -88 80 -68 23 6 25 4 25 -30 0 -31 -3
-36 -22 -36 -13 -1 -46 -9 -75 -19 l-52 -18 -5 51 c-3 28 -7 82 -10 119 -3 63
-2 69 18 77 11 5 24 9 27 9 4 1 10 -38 14 -85z m-80 -96 l7 -88 -25 0 c-16 0
-40 17 -75 54 l-51 53 6 -66 5 -66 -29 -11 -30 -11 -7 75 c-10 126 -8 172 9
174 8 0 19 1 24 2 5 1 30 -18 54 -41 25 -24 48 -43 51 -43 4 0 3 24 0 53 -6
49 -4 54 17 64 22 9 24 8 30 -26 4 -20 10 -75 14 -123z m1092 38 c-5 -12 -209
-72 -234 -70 -8 1 -13 -10 -13 -27 0 -33 -3 -34 128 7 82 25 79 27 84 -57 l4
-55 -85 -22 c-47 -13 -94 -22 -103 -22 -14 0 -18 -8 -18 -34 l0 -34 108 29
c59 16 117 32 130 35 21 6 22 4 22 -60 l0 -65 -52 -15 c-276 -79 -332 -95
-335 -93 -1 2 -7 97 -13 212 -5 116 -12 228 -14 251 l-3 40 136 34 c75 19 161
41 191 50 l55 16 8 -54 c5 -30 6 -60 4 -66z m-1180 84 l2 -31 -30 22 c-24 16
-28 24 -17 30 27 17 43 10 45 -21z m912 -1 c-30 -7 -35 -3 -19 16 10 12 16 13
28 3 13 -11 11 -13 -9 -19z m-1073 -142 c-29 -113 -44 -146 -67 -147 -3 0 -17
27 -30 59 l-23 60 -17 -65 c-19 -73 -18 -71 -42 -76 -13 -2 -28 21 -67 106
-27 60 -49 110 -47 111 1 1 16 5 33 8 29 5 31 3 55 -51 l25 -57 13 67 c10 52
17 67 33 71 16 5 24 -5 46 -51 l26 -57 14 66 c13 60 17 66 46 75 17 5 32 9 32
9 1 0 -13 -58 -30 -128z m-56 113 c0 -5 -4 -10 -10 -10 -5 0 -7 -8 -3 -17 5
-17 5 -17 -12 -1 -9 9 -14 21 -11 27 9 14 36 14 36 1z m-180 -21 c0 -5 -8 -9
-17 -8 -11 0 -13 3 -5 6 6 2 9 10 6 15 -4 7 -2 8 4 4 7 -4 12 -11 12 -17z m55
-15 c-8 -9 -12 -21 -8 -27 3 -7 -3 -3 -15 7 -29 26 -28 33 8 34 27 1 28 -1 15
-14z m983 -1 c2 -7 -3 -13 -11 -13 -9 0 -23 -7 -32 -16 -13 -13 -15 -33 -10
-127 l6 -112 -77 75 c-42 41 -85 83 -96 93 -19 18 -19 18 4 38 16 13 32 18 51
14 31 -5 72 12 100 43 19 21 58 24 65 5z m132 13 c0 -3 -4 -8 -10 -11 -5 -3
-10 -1 -10 4 0 6 5 11 10 11 6 0 10 -2 10 -4z m-16 -291 c8 -126 12 -232 10
-234 -2 -2 -27 -12 -56 -22 l-53 -18 -105 102 c-58 56 -111 109 -118 117 -10
13 -12 9 -8 -20 3 -19 8 -85 11 -146 l6 -111 -58 -17 c-32 -10 -63 -20 -69
-22 -8 -3 -13 70 -18 248 -4 139 -8 256 -9 261 -1 5 21 15 48 22 l50 13 65
-61 c36 -33 89 -85 118 -114 29 -29 54 -53 55 -53 2 0 0 39 -4 88 -4 48 -9
113 -11 144 l-5 57 51 12 c28 6 58 15 66 20 18 10 17 24 34 -266z m-1424 173
c0 -21 -16 -22 -50 -3 -22 12 -23 14 -7 20 9 4 17 17 17 29 0 20 1 20 20 -4
11 -14 20 -33 20 -42z m175 38 c47 -20 69 -57 62 -106 -11 -84 -84 -140 -157
-120 -48 13 -71 44 -72 97 0 79 44 130 125 142 4 0 23 -5 42 -13z m1665 -12
c0 -14 -3 -14 -15 -4 -8 7 -15 14 -15 16 0 2 7 4 15 4 8 0 15 -7 15 -16z
m-836 -3 c3 -5 -3 -11 -14 -14 -20 -5 -26 3 -13 16 9 10 21 9 27 -2z m-321
-93 c-32 -12 -38 -8 -41 29 l-2 37 30 -29 c27 -26 29 -30 13 -37z m252 -38 c0
-85 -2 -98 -13 -83 -46 65 -154 134 -184 118 -7 -4 -3 2 10 12 14 11 41 19 69
21 26 1 49 6 52 11 3 5 17 11 31 14 14 2 27 5 30 6 3 0 5 -44 5 -99z m-976 73
c51 -42 45 -139 -11 -191 -26 -23 -145 -66 -152 -54 -2 4 -7 59 -10 123 l-7
117 38 10 c61 16 118 14 142 -5z m573 -23 c1 -14 9 -30 17 -36 11 -9 6 -15
-24 -34 -20 -12 -46 -32 -56 -44 -14 -15 -18 -16 -14 -5 4 10 1 20 -5 24 -8 5
-1 14 19 26 18 11 33 30 37 46 13 62 19 68 26 23z m-112 -70 c0 -5 -13 -13
-29 -18 l-29 -10 16 28 c12 21 20 26 29 18 7 -6 13 -14 13 -18z m391 3 c72
-37 109 -96 116 -185 9 -114 -49 -218 -159 -289 -48 -31 -59 -34 -129 -34 -67
0 -81 4 -125 30 -30 19 -60 49 -79 79 -27 44 -30 57 -29 125 1 94 24 147 93
215 88 87 211 110 312 59z m-530 -10 c7 -16 15 -31 17 -35 3 -6 -51 -20 -75
-20 -5 0 -16 -4 -25 -9 -26 -14 -22 -6 17 35 19 21 35 42 35 47 0 18 17 8 31
-18z m1569 9 c0 -5 -7 -9 -15 -9 -8 0 -12 4 -9 9 3 4 9 8 15 8 5 0 9 -4 9 -8z
m-1433 -70 c-8 -9 -56 -91 -107 -182 -51 -91 -104 -182 -117 -202 -12 -21 -23
-39 -23 -41 0 -4 191 46 223 58 15 6 17 0 19 -49 0 -31 1 -61 2 -68 1 -7 -15
-16 -34 -20 -44 -9 -439 -123 -463 -133 -12 -5 -4 14 25 61 23 38 79 134 126
214 46 80 94 160 105 179 l20 34 -24 -16 c-13 -9 -58 -24 -99 -35 -41 -11 -81
-21 -89 -23 -10 -3 -15 10 -17 46 -3 28 -6 57 -8 66 -3 14 32 26 198 68 110
29 217 57 236 64 38 15 50 5 27 -21z m-331 -22 c36 0 -22 -23 -86 -34 -40 -7
-59 -19 -68 -44 -8 -25 -9 -25 -14 -5 -5 17 2 27 33 48 22 14 45 37 51 50 l11
24 27 -19 c16 -11 36 -20 46 -20z m-301 -80 c3 -5 1 -10 -4 -10 -6 0 -11 5
-11 10 0 6 2 10 4 10 3 0 8 -4 11 -10z m1371 -21 c16 -17 16 -22 4 -29 -23
-15 -27 -12 -32 20 -5 35 2 38 28 9z m-777 -66 c0 -32 4 -74 10 -93 6 -19 11
-39 11 -45 0 -5 -28 -19 -63 -29 -75 -23 -107 -29 -107 -20 0 4 26 51 57 103
84 142 83 141 88 141 3 0 5 -26 4 -57z m1095 -28 c3 -9 0 -15 -9 -15 -9 0 -12
6 -9 15 4 8 7 15 9 15 2 0 5 -7 9 -15z m-1363 -24 c-10 -18 -15 -19 -31 -9
-21 14 -16 24 15 30 27 6 29 3 16 -21z m-164 -3 c-3 -8 -6 -5 -6 6 -1 11 2 17
5 13 3 -3 4 -12 1 -19z m1000 -48 c-1 -31 -5 -44 -10 -35 -4 8 -14 15 -22 15
-12 0 -12 6 3 35 9 19 20 35 24 35 3 0 6 -22 5 -50z m-1063 -373 c-21 -12 -30
-1 -14 18 10 13 15 13 21 3 5 -8 2 -16 -7 -21z"/>
<path d="M1373 2285 c-56 -28 -104 -89 -125 -157 -11 -37 -11 -37 -53 -31 -58
7 -98 -15 -119 -67 -9 -22 -16 -54 -16 -70 0 -25 4 -30 23 -29 12 0 16 3 10 6
-28 11 -12 83 27 125 17 19 86 28 108 14 5 -3 23 23 40 59 17 35 43 78 58 94
25 29 101 62 141 62 45 1 118 -12 121 -21 2 -6 9 -10 16 -10 20 0 87 -57 108
-90 10 -17 15 -30 12 -30 -2 0 0 -6 6 -12 6 -7 17 -22 24 -33 13 -18 18 -18
48 -7 92 33 175 -10 206 -108 6 -19 16 -48 21 -65 l9 -30 1 29 c3 84 -60 174
-138 197 -37 11 -50 11 -87 -3 l-44 -16 -21 47 c-44 99 -137 161 -254 168 -61
4 -77 1 -122 -22z"/>
<path d="M1540 2229 c11 -7 4 -8 -25 -4 -27 5 -36 3 -26 -3 10 -7 3 -12 -27
-17 -23 -4 -47 -3 -53 1 -8 5 -9 3 -4 -6 6 -9 0 -10 -25 -5 -23 5 -30 4 -26
-4 5 -7 1 -8 -10 -4 -12 5 -15 2 -11 -13 3 -10 9 -52 12 -93 l7 -74 -23 6
c-13 4 -41 1 -61 -5 -42 -12 -49 -34 -20 -66 33 -38 289 -218 297 -210 16 16
175 341 175 358 0 14 -6 20 -22 20 -19 0 -20 -2 -8 -11 11 -7 5 -8 -21 -4 -26
5 -40 2 -52 -9 -23 -23 -27 -20 -27 23 0 21 -3 59 -6 85 -6 41 -9 46 -33 46
-21 0 -23 -2 -11 -11z m6 -129 l7 -80 26 7 c14 3 37 10 50 15 33 12 37 4 13
-29 -11 -15 -40 -70 -66 -120 -25 -51 -50 -93 -54 -93 -11 0 -209 137 -217
149 -5 9 53 31 83 31 10 0 12 18 6 83 l-6 82 63 16 c35 9 69 17 76 17 8 1 14
-26 19 -78z m134 -40 c0 -5 -2 -10 -4 -10 -3 0 -8 5 -11 10 -3 6 -1 10 4 10 6
0 11 -4 11 -10z m-132 -279 c-7 -11 -16 -17 -21 -14 -4 3 0 11 10 19 24 18 25
17 11 -5z"/>
<path d="M1438 2213 c7 -3 16 -2 19 1 4 3 -2 6 -13 5 -11 0 -14 -3 -6 -6z"/>
<path d="M1922 1894 c-35 -13 -117 -35 -183 -48 -66 -13 -123 -27 -127 -31
-23 -23 296 53 358 86 48 25 27 22 -48 -7z"/>
<path d="M2523 1853 c-7 -2 -13 -15 -13 -28 0 -22 2 -23 30 -14 19 7 30 18 30
30 0 19 -20 24 -47 12z"/>
<path d="M2485 1760 c3 -5 10 -10 16 -10 5 0 9 5 9 10 0 6 -7 10 -16 10 -8 0
-12 -4 -9 -10z"/>
<path d="M2562 1756 c7 -8 15 -12 17 -11 5 6 -10 25 -20 25 -5 0 -4 -6 3 -14z"/>
<path d="M2305 1720 c-3 -5 -2 -10 4 -10 5 0 13 5 16 10 3 6 2 10 -4 10 -5 0
-13 -4 -16 -10z"/>
<path d="M2135 1752 c-6 -4 -9 -30 -7 -59 l4 -51 29 10 c32 11 49 35 49 67 0
30 -49 52 -75 33z m45 -41 c0 -19 -17 -38 -25 -29 -7 7 7 48 16 48 5 0 9 -9 9
-19z"/>
<path d="M2225 1700 c-3 -6 1 -7 9 -4 18 7 21 14 7 14 -6 0 -13 -4 -16 -10z"/>
<path d="M1940 1680 c0 -8 -3 -25 -6 -37 -7 -24 2 -29 24 -14 12 7 11 13 -2
37 -8 16 -15 22 -16 14z"/>
<path d="M1988 1643 c7 -3 16 -2 19 1 4 3 -2 6 -13 5 -11 0 -14 -3 -6 -6z"/>
<path d="M1895 1620 c-3 -5 -1 -10 4 -10 6 0 11 5 11 10 0 6 -2 10 -4 10 -3 0
-8 -4 -11 -10z"/>
<path d="M1686 1628 c-20 -29 -20 -52 0 -72 22 -23 51 -20 79 9 30 29 31 39 5
65 -27 27 -65 26 -84 -2z m68 -17 c3 -4 -1 -16 -8 -26 -17 -24 -46 -13 -39 14
5 21 37 29 47 12z"/>
<path d="M1805 1600 c-3 -5 -2 -10 4 -10 5 0 13 5 16 10 3 6 2 10 -4 10 -5 0
-13 -4 -16 -10z"/>
<path d="M1640 1570 c-9 -6 -10 -10 -3 -10 6 0 15 5 18 10 8 12 4 12 -15 0z"/>
<path d="M1400 1490 c-8 -5 -25 -10 -38 -10 -20 0 -18 -3 17 -35 46 -42 60
-46 25 -8 -25 27 -25 28 -5 37 12 5 21 13 21 18 0 10 -1 10 -20 -2z"/>
<path d="M1265 1470 c-3 -5 1 -10 10 -10 9 0 13 5 10 10 -3 6 -8 10 -10 10 -2
0 -7 -4 -10 -10z"/>
<path d="M2350 1343 c-47 -13 -103 -27 -125 -31 l-40 -8 1 -117 c0 -64 3 -119
6 -122 3 -3 16 -1 29 4 23 9 23 10 3 10 -27 1 -32 26 -30 130 l1 76 40 8 c22
5 47 12 55 17 14 7 34 12 95 24 11 3 38 11 60 20 65 24 3 17 -95 -11z"/>
<path d="M2488 1233 c-10 -2 -18 -9 -18 -14 0 -4 12 -3 26 3 21 10 27 9 35 -3
7 -11 9 -11 9 4 0 17 -15 20 -52 10z"/>
<path d="M2361 1198 c-52 -16 -65 -17 -72 -6 -6 9 -9 10 -9 1 0 -19 35 -34 48
-21 6 6 19 11 29 12 26 3 103 26 103 31 0 9 -35 3 -99 -17z"/>
<path d="M2445 1140 c-13 -5 -14 -9 -5 -9 8 0 24 4 35 9 13 5 14 9 5 9 -8 0
-24 -4 -35 -9z"/>
<path d="M2305 1103 l-30 -14 30 6 c31 7 41 12 34 19 -2 2 -17 -3 -34 -11z"/>
<path d="M2358 1113 c6 -2 18 -2 25 0 6 3 1 5 -13 5 -14 0 -19 -2 -12 -5z"/>
<path d="M1141 1431 c-7 -5 -22 -6 -32 -4 -14 4 -18 1 -13 -10 4 -12 11 -13
35 -5 16 5 32 14 35 19 7 11 -7 11 -25 0z"/>
<path d="M1003 1403 c-18 -2 -33 -8 -33 -12 0 -10 69 -1 76 10 3 5 2 8 -3 7
-4 0 -23 -3 -40 -5z"/>
<path d="M2038 1233 c-25 -10 -38 -22 -38 -34 0 -23 -9 -24 -37 -4 -18 13 -30
14 -68 4 -25 -6 -45 -14 -45 -18 0 -4 37 -43 83 -88 81 -81 83 -82 118 -74 43
10 59 19 59 32 0 6 -7 3 -16 -5 -21 -21 -70 -20 -92 2 -11 9 -45 42 -77 72
l-57 54 28 10 c18 6 38 5 61 -3 35 -13 53 -8 53 13 0 8 21 23 48 34 26 11 40
21 32 21 -8 0 -32 -7 -52 -16z"/>
<path d="M1810 1230 c-13 -9 -13 -10 0 -10 8 0 22 5 30 10 13 9 13 10 0 10 -8
0 -22 -5 -30 -10z"/>
<path d="M1715 1126 c-22 -6 -39 -15 -37 -19 1 -4 2 -47 2 -97 0 -100 2 -102
69 -79 31 11 31 12 29 72 l-1 62 -6 -59 c-6 -56 -8 -60 -35 -68 -17 -4 -31 -6
-33 -4 -2 2 -4 40 -6 86 -2 88 0 92 55 91 9 0 19 7 22 15 6 17 -5 17 -59 0z"/>
<path d="M767 1392 c-33 -36 -8 -92 40 -92 43 0 80 69 51 98 -18 18 -73 14
-91 -6z m68 -33 c0 -17 -6 -25 -21 -27 -29 -4 -41 28 -17 45 24 18 38 11 38
-18z"/>
<path d="M880 1360 c0 -5 4 -10 9 -10 6 0 13 5 16 10 3 6 -1 10 -9 10 -9 0
-16 -4 -16 -10z"/>
<path d="M710 1320 c0 -15 47 -60 62 -60 7 0 1 8 -12 17 -33 23 -41 36 -27 45
8 5 6 8 -5 8 -10 0 -18 -5 -18 -10z"/>
<path d="M538 1290 c3 -30 6 -56 7 -58 1 -2 15 0 30 4 32 8 57 57 45 89 -6 15
-16 20 -47 20 l-39 1 4 -56z m55 17 c3 -8 1 -20 -4 -28 -8 -12 -10 -12 -18 0
-10 15 -4 41 9 41 4 0 10 -6 13 -13z"/>
<path d="M640 1300 c0 -5 4 -10 9 -10 6 0 13 5 16 10 3 6 -1 10 -9 10 -9 0
-16 -4 -16 -10z"/>
<path d="M490 1250 c0 -13 11 -13 30 0 12 8 11 10 -7 10 -13 0 -23 -4 -23 -10z"/>
<path d="M515 1220 c-3 -5 -1 -10 4 -10 6 0 11 5 11 10 0 6 -2 10 -4 10 -3 0
-8 -4 -11 -10z"/>
<path d="M1333 1194 c4 -4 -8 -14 -25 -23 -51 -26 -73 -64 -73 -127 0 -47 4
-58 32 -85 24 -25 40 -32 71 -32 132 0 197 182 87 244 -30 16 -104 35 -92 23z
m82 -79 c35 -34 32 -70 -9 -111 -36 -36 -54 -41 -89 -23 -31 17 -37 28 -37 72
0 48 35 87 80 87 19 0 40 -9 55 -25z"/>
<path d="M1390 1087 c14 -8 27 -12 30 -10 7 6 -23 23 -40 23 -8 0 -4 -6 10
-13z"/>
<path d="M1540 1106 c-30 -11 -36 -18 -42 -57 -14 -82 -79 -139 -159 -139 -42
0 -53 5 -84 35 -19 20 -35 30 -35 24 0 -7 15 -26 34 -42 31 -27 40 -31 88 -28
96 5 150 50 164 139 6 37 9 41 50 51 44 11 69 32 37 30 -10 0 -34 -6 -53 -13z"/>
<path d="M1147 1007 c-43 -12 -43 -22 1 -97 20 -33 42 -52 81 -72 95 -48 186
-30 274 54 l52 50 -54 -46 c-29 -25 -61 -46 -71 -46 -11 0 -22 -5 -25 -11 -4
-6 -13 -8 -21 -5 -8 3 -14 1 -14 -4 0 -21 -129 4 -150 29 -3 3 -14 11 -25 17
-11 6 -31 30 -44 53 -22 41 -23 43 -5 56 17 13 45 20 67 16 4 0 7 4 7 9 0 12
-22 11 -73 -3z"/>
<path d="M848 912 c-55 -26 -61 -32 -124 -137 -36 -60 -70 -117 -75 -126 -7
-13 14 -10 114 18 138 38 159 46 102 36 -22 -3 -48 -6 -57 -7 -10 0 -18 -3
-18 -7 0 -8 -90 -23 -97 -16 -6 7 64 134 98 177 15 20 35 37 46 38 45 5 58 10
71 30 18 28 11 27 -60 -6z"/>
<path d="M1060 840 c-20 -11 -212 -61 -217 -57 -2 3 1 16 6 31 14 35 5 33 -13
-3 -27 -50 9 -56 114 -19 8 3 39 12 68 21 l52 15 0 -33 c0 -27 -5 -35 -27 -44
l-28 -11 30 6 c39 7 42 11 35 61 -4 33 -8 40 -20 33z"/>
<path d="M990 740 c-13 -8 -12 -10 3 -10 9 0 17 5 17 10 0 12 -1 12 -20 0z"/>
<path d="M935 724 l-30 -13 30 6 c32 6 41 11 34 17 -2 2 -17 -2 -34 -10z"/>
<path d="M1876 953 c3 -26 7 -56 9 -66 4 -23 -34 -40 -164 -73 -113 -29 -111
-29 -111 -4 0 28 -9 25 -65 -27 l-50 -45 100 5 c114 6 245 44 333 96 93 55
127 36 40 -22 -72 -47 -90 -55 -170 -83 -134 -45 -218 -49 -376 -18 -19 4 -38
2 -46 -5 -11 -9 -23 -9 -50 3 -39 16 -38 16 -62 16 -8 0 -12 5 -9 10 6 10 -34
30 -61 30 -53 0 94 -72 203 -99 255 -65 527 13 717 206 48 48 85 100 55 77
-20 -15 -132 -54 -157 -54 -11 0 -48 23 -81 51 l-61 51 6 -49z m74 -59 c0 -15
-25 -36 -33 -27 -4 3 -7 19 -7 35 0 26 2 27 20 16 11 -7 20 -18 20 -24z m120
-29 c-25 -27 -51 -35 -30 -10 7 8 9 15 4 16 -10 1 26 17 40 18 5 1 -1 -10 -14
-24z m-465 -96 c-4 -5 -13 -9 -22 -9 -13 0 -13 3 -3 15 13 15 35 11 25 -6z"/>
</g>
</svg>
